<svg xmlns="http://www.w3.org/2000/svg" viewBox="0 0 800 450">
  <defs>
    <linearGradient id="sky" x1="0" y1="0" x2="0" y2="1">
      <stop offset="0" stop-color="#fdf0e4"></stop>
      <stop offset="1" stop-color="#f9e2cd"></stop>
    </linearGradient>
  </defs>
  
  <rect width="800" height="450" fill="url(#sky)"></rect>
  
  <circle cx="618" cy="108" r="52" fill="#e8955c" opacity="0.9"></circle>
  <circle cx="618" cy="108" r="66" fill="none" stroke="#e8955c" stroke-width="3" opacity="0.35"></circle>
  
  <g fill="#fbf6ee" opacity="0.9">
    <ellipse cx="150" cy="90" rx="58" ry="14"></ellipse>
    <ellipse cx="196" cy="78" rx="36" ry="11"></ellipse>
    <ellipse cx="700" cy="200" rx="48" ry="11"></ellipse>
  </g>
  
  <rect y="356" width="800" height="94" fill="#e8d5bb"></rect>
  <ellipse cx="400" cy="360" rx="430" ry="26" fill="#efdfc8"></ellipse>
  
  <g>
    <path d="M20 320 Q210 288 330 300 L330 356 Q210 344 20 372 Z" fill="#f3e3c9"></path>
    <path d="M780 320 Q590 288 470 300 L470 356 Q590 344 780 372 Z" fill="#f3e3c9"></path>
    <g fill="#d9bf98">
      <rect x="52" y="316" width="9" height="46"></rect><rect x="92" y="311" width="9" height="48"></rect><rect x="132" y="306" width="9" height="49"></rect><rect x="172" y="302" width="9" height="50"></rect><rect x="212" y="299" width="9" height="52"></rect><rect x="252" y="298" width="9" height="54"></rect><rect x="292" y="298" width="9" height="56"></rect>
      <rect x="739" y="316" width="9" height="46"></rect><rect x="699" y="311" width="9" height="48"></rect><rect x="659" y="306" width="9" height="49"></rect><rect x="619" y="302" width="9" height="50"></rect><rect x="579" y="299" width="9" height="52"></rect><rect x="539" y="298" width="9" height="54"></rect><rect x="499" y="298" width="9" height="56"></rect>
    </g>
  </g>
  
  <g>
    
    <rect x="352" y="176" width="96" height="42" fill="#f6ead6"></rect>
    <g fill="#d9bf98"><rect x="360" y="182" width="7" height="30"></rect><rect x="378" y="182" width="7" height="30"></rect><rect x="396" y="182" width="7" height="30"></rect><rect x="414" y="182" width="7" height="30"></rect><rect x="432" y="182" width="7" height="30"></rect></g>
    
    <path d="M348 178 Q348 108 400 104 Q452 108 452 178 Z" fill="#24407c"></path>
    <path d="M400 104 Q414 108 418 178 L400 178 Z" fill="#2f4f95" opacity="0.8"></path>
    <g stroke="#f6ead6" stroke-width="2.5" fill="none" opacity="0.5">
      <path d="M400 104 Q378 110 372 178"></path>
      <path d="M400 104 Q422 110 428 178"></path>
    </g>
    
    <rect x="392" y="80" width="16" height="26" fill="#f6ead6"></rect>
    <path d="M390 80 L410 80 L400 68 Z" fill="#24407c"></path>
    <rect x="398.5" y="46" width="3" height="22" fill="#d4570f"></rect>
    <rect x="392" y="52" width="16" height="3" fill="#d4570f"></rect>
    
    <g>
      <path d="M310 226 Q310 196 332 194 Q354 196 354 226 Z" fill="#24407c"></path>
      <path d="M446 226 Q446 196 468 194 Q490 196 490 226 Z" fill="#24407c"></path>
      <rect x="330" y="184" width="4" height="12" fill="#d4570f"></rect>
      <rect x="466" y="184" width="4" height="12" fill="#d4570f"></rect>
    </g>
    
    <rect x="296" y="226" width="208" height="130" fill="#fbf3e2"></rect>
    <rect x="296" y="218" width="208" height="12" fill="#e8d5bb"></rect>
    
    <path d="M362 226 L400 200 L438 226 Z" fill="#f3e3c9"></path>
    
    <g fill="#e3cda6">
      <rect x="312" y="240" width="12" height="96"></rect><rect x="340" y="240" width="12" height="96"></rect><rect x="368" y="240" width="12" height="96"></rect><rect x="420" y="240" width="12" height="96"></rect><rect x="448" y="240" width="12" height="96"></rect><rect x="476" y="240" width="12" height="96"></rect>
    </g>
    
    <rect x="390" y="280" width="20" height="56" rx="10" fill="#24407c"></rect>
    <g fill="#d4570f" opacity="0.85">
      <rect x="318" y="252" width="8" height="14" rx="4"></rect><rect x="346" y="252" width="8" height="14" rx="4"></rect><rect x="426" y="252" width="8" height="14" rx="4"></rect><rect x="454" y="252" width="8" height="14" rx="4"></rect>
    </g>
    
    <rect x="284" y="336" width="232" height="10" fill="#e8d5bb"></rect>
    <rect x="272" y="346" width="256" height="10" fill="#dfc9a4"></rect>
  </g>
  
  
  <g fill="#d9bf98" opacity="0.7">
    <circle cx="250" cy="400" r="4"></circle><circle cx="320" cy="416" r="4"></circle><circle cx="480" cy="416" r="4"></circle><circle cx="550" cy="400" r="4"></circle><circle cx="180" cy="420" r="4"></circle><circle cx="620" cy="420" r="4"></circle>
  </g>
  
  <g fill="#24407c">
    <path d="M180 150 q14 -12 30 -6 q-10 2 -14 8 q12 -2 18 4 q-14 0 -20 6 q-6 6 -14 4 q-8 10 -22 10 q10 -6 12 -14 q2 -8 10 -12z"></path>
    <path d="M540 250 q10 -8 21 -4 q-7 1 -10 5 q9 -1 13 3 q-10 0 -14 4 q-4 4 -10 3 q-6 7 -16 7 q7 -4 9 -10 q1 -5 7 -8z" opacity="0.85"></path>
  </g>
</svg>