<svg xmlns="http://www.w3.org/2000/svg" viewBox="0 0 800 450">
  <defs><linearGradient id="sky" x1="0" y1="0" x2="0" y2="1"><stop offset="0" stop-color="#fdf0e4"></stop><stop offset="1" stop-color="#f9e2cd"></stop></linearGradient></defs>
  <rect width="800" height="450" fill="url(#sky)"></rect>
  <circle cx="140" cy="90" r="46" fill="#e8955c" opacity="0.9"></circle>
  <circle cx="140" cy="90" r="59" fill="none" stroke="#e8955c" stroke-width="3" opacity="0.35"></circle>
  <g fill="#fbf6ee" opacity="0.9"><ellipse cx="620" cy="80" rx="56" ry="13"></ellipse><ellipse cx="664" cy="68" rx="34" ry="10"></ellipse></g>
  
  <ellipse cx="150" cy="450" rx="260" ry="150" fill="#e8d5bb"></ellipse>
  <ellipse cx="650" cy="470" rx="280" ry="160" fill="#efdfc8"></ellipse>
  <ellipse cx="400" cy="500" rx="320" ry="200" fill="#f3e3c9"></ellipse>
  
  <g>
    <rect x="90" y="270" width="130" height="80" fill="#f6ead6"></rect>
    <path d="M118 272 Q118 226 155 222 Q192 226 192 272 Z" fill="#24407c"></path>
    <rect x="152" y="204" width="6" height="20" fill="#d4570f"></rect>
    <g fill="#e3cda6"><rect x="102" y="284" width="10" height="56"></rect><rect x="126" y="284" width="10" height="56"></rect><rect x="174" y="284" width="10" height="56"></rect><rect x="198" y="284" width="10" height="56"></rect></g>
    <rect x="146" y="300" width="18" height="50" rx="9" fill="#24407c"></rect>
    <rect x="80" y="350" width="150" height="10" fill="#dfc9a4"></rect>
  </g>
  
  <g>
    <rect x="330" y="240" width="150" height="110" fill="#fbf3e2"></rect>
    <path d="M330 240 L405 196 L480 240 Z" fill="#f3e3c9"></path>
    <circle cx="405" cy="224" r="9" fill="#d4570f"></circle>
    <rect x="402" y="168" width="5" height="28" fill="#24407c"></rect>
    <path d="M407 170 L432 176 L407 184 Z" fill="#d4570f"></path>
    <g fill="#e3cda6"><rect x="344" y="254" width="12" height="86"></rect><rect x="372" y="254" width="12" height="86"></rect><rect x="400" y="254" width="12" height="86"></rect><rect x="428" y="254" width="12" height="86"></rect><rect x="456" y="254" width="12" height="86"></rect></g>
    <rect x="318" y="350" width="174" height="10" fill="#dfc9a4"></rect>
    <rect x="306" y="360" width="198" height="10" fill="#d9bf98"></rect>
  </g>
  
  <g>
    <rect x="590" y="252" width="110" height="98" fill="#f6ead6"></rect>
    <rect x="622" y="212" width="46" height="44" fill="#f3e3c9"></rect>
    <path d="M616 214 L674 214 L645 186 Z" fill="#24407c"></path>
    <rect x="642" y="166" width="5" height="22" fill="#d4570f"></rect>
    <circle cx="645" cy="234" r="11" fill="#fbf6ee" stroke="#24407c" stroke-width="3"></circle>
    <line x1="645" y1="234" x2="645" y2="227" stroke="#24407c" stroke-width="2.5"></line>
    <line x1="645" y1="234" x2="650" y2="236" stroke="#d4570f" stroke-width="2.5"></line>
    <g fill="#e3cda6"><rect x="600" y="266" width="10" height="72"></rect><rect x="680" y="266" width="10" height="72"></rect></g>
    <g fill="#d4570f" opacity="0.85"><rect x="620" y="272" width="9" height="16" rx="4.5"></rect><rect x="661" y="272" width="9" height="16" rx="4.5"></rect></g>
    <rect x="632" y="304" width="26" height="46" rx="4" fill="#24407c"></rect>
    <rect x="580" y="350" width="130" height="10" fill="#dfc9a4"></rect>
  </g>
  
  <g>
    <path d="M155 132 q-16 0 -16 16 q0 12 16 30 q16 -18 16 -30 q0 -16 -16 -16z" fill="#d4570f"></path><circle cx="155" cy="149" r="6" fill="#fdf0e4"></circle>
    <path d="M405 108 q-16 0 -16 16 q0 12 16 30 q16 -18 16 -30 q0 -16 -16 -16z" fill="#24407c"></path><circle cx="405" cy="125" r="6" fill="#fdf0e4"></circle>
    <path d="M645 112 q-16 0 -16 16 q0 12 16 30 q16 -18 16 -30 q0 -16 -16 -16z" fill="#d4570f"></path><circle cx="645" cy="129" r="6" fill="#fdf0e4"></circle>
  </g>
  <g fill="#24407c"><path d="M290 96 q14 -12 30 -6 q-10 2 -14 8 q12 -2 18 4 q-14 0 -20 6 q-6 6 -14 4 q-8 10 -22 10 q10 -6 12 -14 q2 -8 10 -12z"></path></g>
  <g fill="#d9bf98" opacity="0.7"><circle cx="270" cy="420" r="4"></circle><circle cx="530" cy="416" r="4"></circle><circle cx="70" cy="400" r="4"></circle><circle cx="740" cy="408" r="4"></circle></g>
</svg>