<svg xmlns="http://www.w3.org/2000/svg" viewBox="0 0 800 450">
  <defs>
    <linearGradient id="sky" x1="0" y1="0" x2="0" y2="1">
      <stop offset="0" stop-color="#fdf0e4"></stop>
      <stop offset="1" stop-color="#f9e2cd"></stop>
    </linearGradient>
  </defs>

  <rect width="800" height="450" fill="url(#sky)"></rect>

  <circle cx="672" cy="96" r="46" fill="#e8955c" opacity="0.9"></circle>
  <circle cx="672" cy="96" r="59" fill="none" stroke="#e8955c" stroke-width="3" opacity="0.35"></circle>

  <g fill="#fbf6ee" opacity="0.9">
    <ellipse cx="128" cy="84" rx="54" ry="13"></ellipse>
    <ellipse cx="170" cy="72" rx="33" ry="10"></ellipse>
    <ellipse cx="588" cy="188" rx="44" ry="10"></ellipse>
  </g>

  <rect y="356" width="800" height="94" fill="#e8d5bb"></rect>
  <ellipse cx="400" cy="360" rx="430" ry="26" fill="#efdfc8"></ellipse>

  <g>
    <rect x="36" y="196" width="44" height="160" fill="#f6ead6"></rect>
    <rect x="88" y="152" width="52" height="204" fill="#f3e3c9"></rect>
    <rect x="148" y="220" width="40" height="136" fill="#f6ead6"></rect>
    <rect x="196" y="176" width="48" height="180" fill="#f3e3c9"></rect>
    <rect x="106" y="120" width="16" height="34" fill="#e3cda6"></rect>
    <g fill="#e3cda6">
      <rect x="46" y="210" width="8" height="12"></rect><rect x="62" y="210" width="8" height="12"></rect>
      <rect x="46" y="236" width="8" height="12"></rect><rect x="62" y="236" width="8" height="12"></rect>
      <rect x="46" y="262" width="8" height="12"></rect><rect x="62" y="262" width="8" height="12"></rect>
      <rect x="46" y="288" width="8" height="12"></rect><rect x="62" y="288" width="8" height="12"></rect>
      <rect x="98" y="168" width="9" height="13"></rect><rect x="116" y="168" width="9" height="13"></rect>
      <rect x="98" y="196" width="9" height="13"></rect><rect x="116" y="196" width="9" height="13"></rect>
      <rect x="98" y="224" width="9" height="13"></rect><rect x="116" y="224" width="9" height="13"></rect>
      <rect x="98" y="252" width="9" height="13"></rect><rect x="116" y="252" width="9" height="13"></rect>
      <rect x="98" y="280" width="9" height="13"></rect><rect x="116" y="280" width="9" height="13"></rect>
      <rect x="158" y="234" width="8" height="12"></rect><rect x="174" y="234" width="8" height="12"></rect>
      <rect x="158" y="260" width="8" height="12"></rect><rect x="174" y="260" width="8" height="12"></rect>
      <rect x="158" y="286" width="8" height="12"></rect><rect x="174" y="286" width="8" height="12"></rect>
      <rect x="206" y="192" width="9" height="13"></rect><rect x="224" y="192" width="9" height="13"></rect>
      <rect x="206" y="220" width="9" height="13"></rect><rect x="224" y="220" width="9" height="13"></rect>
      <rect x="206" y="248" width="9" height="13"></rect><rect x="224" y="248" width="9" height="13"></rect>
      <rect x="206" y="276" width="9" height="13"></rect><rect x="224" y="276" width="9" height="13"></rect>
    </g>
  </g>

  <g>
    <rect x="558" y="188" width="46" height="168" fill="#f6ead6"></rect>
    <rect x="612" y="146" width="54" height="210" fill="#f3e3c9"></rect>
    <rect x="674" y="212" width="42" height="144" fill="#f6ead6"></rect>
    <rect x="724" y="180" width="44" height="176" fill="#f3e3c9"></rect>
    <rect x="632" y="114" width="14" height="34" fill="#e3cda6"></rect>
    <g fill="#e3cda6">
      <rect x="568" y="202" width="8" height="12"></rect><rect x="586" y="202" width="8" height="12"></rect>
      <rect x="568" y="228" width="8" height="12"></rect><rect x="586" y="228" width="8" height="12"></rect>
      <rect x="568" y="254" width="8" height="12"></rect><rect x="586" y="254" width="8" height="12"></rect>
      <rect x="568" y="280" width="8" height="12"></rect><rect x="586" y="280" width="8" height="12"></rect>
      <rect x="622" y="162" width="9" height="13"></rect><rect x="640" y="162" width="9" height="13"></rect>
      <rect x="622" y="190" width="9" height="13"></rect><rect x="640" y="190" width="9" height="13"></rect>
      <rect x="622" y="218" width="9" height="13"></rect><rect x="640" y="218" width="9" height="13"></rect>
      <rect x="622" y="246" width="9" height="13"></rect><rect x="640" y="246" width="9" height="13"></rect>
      <rect x="622" y="274" width="9" height="13"></rect><rect x="640" y="274" width="9" height="13"></rect>
      <rect x="684" y="226" width="8" height="12"></rect><rect x="700" y="226" width="8" height="12"></rect>
      <rect x="684" y="252" width="8" height="12"></rect><rect x="700" y="252" width="8" height="12"></rect>
      <rect x="684" y="278" width="8" height="12"></rect><rect x="700" y="278" width="8" height="12"></rect>
      <rect x="734" y="196" width="9" height="13"></rect><rect x="752" y="196" width="9" height="13"></rect>
      <rect x="734" y="224" width="9" height="13"></rect><rect x="752" y="224" width="9" height="13"></rect>
      <rect x="734" y="252" width="9" height="13"></rect><rect x="752" y="252" width="9" height="13"></rect>
      <rect x="734" y="280" width="9" height="13"></rect><rect x="752" y="280" width="9" height="13"></rect>
    </g>
  </g>

  <g>
    <rect x="308" y="262" width="184" height="94" fill="#fbf3e2"></rect>
    <rect x="308" y="254" width="184" height="12" fill="#e8d5bb"></rect>

    <path d="M356 254 Q356 206 400 202 Q444 206 444 254 Z" fill="#24407c"></path>
    <path d="M400 202 Q412 206 416 254 L400 254 Z" fill="#2f4f95" opacity="0.8"></path>
    <g stroke="#f6ead6" stroke-width="2.5" fill="none" opacity="0.5">
      <path d="M400 202 Q380 208 374 254"></path>
      <path d="M400 202 Q420 208 426 254"></path>
    </g>

    <rect x="393" y="182" width="14" height="22" fill="#f6ead6"></rect>
    <path d="M391 182 L409 182 L400 172 Z" fill="#24407c"></path>

    <rect x="326" y="276" width="16" height="28" fill="#f3e3c9"></rect>
    <rect x="458" y="276" width="16" height="28" fill="#f3e3c9"></rect>

    <g fill="#e3cda6">
      <rect x="322" y="290" width="11" height="66"></rect>
      <rect x="348" y="290" width="11" height="66"></rect>
      <rect x="441" y="290" width="11" height="66"></rect>
      <rect x="467" y="290" width="11" height="66"></rect>
    </g>

    <rect x="390" y="308" width="20" height="48" rx="10" fill="#24407c"></rect>
    <g fill="#d4570f" opacity="0.85">
      <rect x="366" y="290" width="8" height="14" rx="4"></rect>
      <rect x="426" y="290" width="8" height="14" rx="4"></rect>
    </g>

    <rect x="296" y="336" width="208" height="10" fill="#e8d5bb"></rect>
    <rect x="284" y="346" width="232" height="10" fill="#dfc9a4"></rect>
  </g>

  <g>
    <path d="M400 86 q-22 0 -22 22 q0 17 22 42 q22 -25 22 -42 q0 -22 -22 -22z" fill="#d4570f"></path>
    <path d="M400 96.5 l3.6 7.4 8.1 1.2 -5.9 5.7 1.4 8.1 -7.2 -3.8 -7.2 3.8 1.4 -8.1 -5.9 -5.7 8.1 -1.2z" fill="#fdf0e4"></path>
  </g>

  <g fill="#24407c">
    <path d="M214 118 q14 -12 30 -6 q-10 2 -14 8 q12 -2 18 4 q-14 0 -20 6 q-6 6 -14 4 q-8 10 -22 10 q10 -6 12 -14 q2 -8 10 -12z"></path>
    <path d="M528 258 q10 -8 21 -4 q-7 1 -10 5 q9 -1 13 3 q-10 0 -14 4 q-4 4 -10 3 q-6 7 -16 7 q7 -4 9 -10 q1 -5 7 -8z" opacity="0.85"></path>
  </g>

  <g fill="#d9bf98" opacity="0.7">
    <circle cx="248" cy="402" r="4"></circle><circle cx="318" cy="418" r="4"></circle>
    <circle cx="482" cy="418" r="4"></circle><circle cx="552" cy="402" r="4"></circle>
    <circle cx="176" cy="422" r="4"></circle><circle cx="624" cy="422" r="4"></circle>
  </g>
</svg>
